<svg aria-hidden="true" style="position:absolute;width:0;height:0;overflow:hidden" xmlns="http://www.w3.org/2000/svg">
  <defs>
    <symbol id="logo" viewBox="0 0 350 120">
      <path
        d="M71.474 60.237a38.623 38.623 0 0 1-18.537 15.687 38.461 38.461 0 0 1-24.201 1.493 38.577 38.577 0 0 1-20.312-13.29A38.806 38.806 0 0 1 .023 41.302a38.822 38.822 0 0 1 6.826-23.35A38.603 38.603 0 0 1 26.207 3.3a38.46 38.46 0 0 1 24.247-.171 38.597 38.597 0 0 1 19.562 14.377l-15.17 13.03a18.812 18.812 0 0 0-9.005-7.954 18.729 18.729 0 0 0-11.967-.865 18.785 18.785 0 0 0-10.049 6.578 18.898 18.898 0 0 0-4.034 11.338 18.902 18.902 0 0 0 3.625 11.477 18.791 18.791 0 0 0 9.805 6.937 18.728 18.728 0 0 0 11.99-.43 18.804 18.804 0 0 0 9.286-7.624l16.977 10.244Z" />
      <path
        d="M131.754 60.91a38.79 38.79 0 0 1-7.392 22.794 38.571 38.571 0 0 1-19.352 14.053 38.436 38.436 0 0 1-23.886-.081 38.573 38.573 0 0 1-19.257-14.183l15.032-13.3a18.75 18.75 0 0 0 8.95 8.005 18.667 18.667 0 0 0 11.952.92 18.72 18.72 0 0 0 10.059-6.545 18.835 18.835 0 0 0 4.044-11.325 18.837 18.837 0 0 0-3.628-11.465 18.73 18.73 0 0 0-9.814-6.91 18.665 18.665 0 0 0-11.978.48 18.742 18.742 0 0 0-9.235 7.671l-17.13-10.026A38.6 38.6 0 0 1 78.88 24.98a38.437 38.437 0 0 1 24.596-1.355 38.564 38.564 0 0 1 20.395 13.863 38.79 38.79 0 0 1 7.873 23.422h.01ZM168.304 79.441v2.947c0 5.201-2.447 7.803-7.341 7.806h-3.947c-4.894 0-7.342-2.602-7.342-7.806v-30.35c0-5.204 2.448-7.806 7.342-7.806h3.954c4.894 0 7.341 2.602 7.341 7.806v5.182H162.2v-4.733c0-1.794-.914-2.69-2.744-2.687h-1.21c-1.618 0-2.422.895-2.422 2.687v29.434c0 1.793.804 2.688 2.422 2.688h1.507c1.615 0 2.424-.896 2.426-2.688v-2.48h6.125ZM187.305 66.562c3.356.936 5.035 2.69 5.037 5.263v11.517c0 4.563-2.316 6.846-6.95 6.848h-12.309V44.232h10.46c5.44 0 8.161 2.773 8.163 8.318v8.83c0 2.646-1.467 4.267-4.401 4.863v.32Zm-8.1-2.943h2.87c2.33 0 3.496-1.109 3.496-3.326v-7.164c0-2.217-.914-3.326-2.741-3.326h-3.636l.011 13.816Zm0 20.99h4.593c1.615 0 2.423-.662 2.423-1.986V72.449c0-2.175-1.212-3.263-3.636-3.263h-3.38V84.61ZM197.443 90.176V44.218h6.121v45.958h-6.121ZM219.058 49.8v40.376h-6.121V49.8h-5.866v-5.568h17.854V49.8h-5.867ZM235.507 90.176c-4.93 0-7.394-2.602-7.394-7.806V52.101c0-5.246 2.447-7.869 7.341-7.869h5.867c4.894 0 7.341 2.623 7.341 7.87V82.37c0 5.202-2.466 7.804-7.397 7.806h-5.758Zm1.468-5.567h3.125c1.616 0 2.423-.896 2.423-2.688V52.487c0-1.794-.915-2.69-2.744-2.687h-2.867c-1.787 0-2.68.896-2.678 2.687v29.434c0 1.792.914 2.688 2.741 2.688ZM260.185 90.176h-6.122V44.218h15.176v5.568h-9.054v40.39ZM293.151 44.232V90.19h-6.121V49.8h-7.527v32.627c0 5.161-2.358 7.742-7.076 7.742h-1.912v-5.56h.126c1.83 0 2.743-1.109 2.741-3.326v-37.05h19.769ZM318.528 90.176h-6.121V71.618h-3.699l-4.016 18.558h-5.8l4.272-19.134c-2.422-1.066-3.634-3.604-3.636-7.613V52.101c0-5.246 2.339-7.869 7.016-7.869h11.988l-.004 45.944ZM312.407 49.8h-4.017c-1.829 0-2.744 1.108-2.744 3.326v9.918c0 2.221.915 3.331 2.744 3.329h4.017V49.8ZM326.244 90.176v9.15h-6.121V85.054h2.23a85.667 85.667 0 0 0 1.689-4.911c.489-1.576.926-3.2 1.307-4.863.381-1.663.699-3.466.989-5.406.291-1.94.5-4.14.672-6.592.171-2.452.293-5.224.381-8.318.087-3.094.15-6.666.192-10.718h18.364v40.808h2.87v14.272h-6.058v-9.15h-16.515ZM339.826 49.8h-6.761c0 3.415-.042 6.496-.126 9.244-.084 2.748-.211 5.18-.381 7.297a78.12 78.12 0 0 1-.64 5.613 71.545 71.545 0 0 1-.86 4.561 42.532 42.532 0 0 1-1.147 4.157c-.447 1.351-.926 2.839-1.437 4.414h11.352V49.8ZM147.108 103.974h1.514v9.746h4.048v-.06h.217v-9.686h1.524v10.9h-.223v2.677h-1.518v-2.677h-5.562v-10.9ZM158.981 115.046a2.816 2.816 0 0 1-2.367-1.108 4.597 4.597 0 0 1-.853-2.888v-.351a4.783 4.783 0 0 1 .849-2.929 2.664 2.664 0 0 1 2.227-1.144 2.454 2.454 0 0 1 2.098.983c.515.779.767 1.704.72 2.638v.856h-4.38a4 4 0 0 0 .447 2.017 1.471 1.471 0 0 0 1.363.772c.378.008.754-.06 1.105-.2.322-.139.615-.335.867-.579l.493.944c-.3.301-.656.539-1.049.702-.481.2-.999.298-1.52.287Zm-.144-7.248a1.193 1.193 0 0 0-1.049.611 3.668 3.668 0 0 0-.485 1.613h2.863v-.172a2.974 2.974 0 0 0-.325-1.484 1.087 1.087 0 0 0-1.004-.568ZM169.269 114.874h-1.524v-3.462h-2.748v3.462h-1.524v-8.097h1.524v3.509h2.748v-3.509h1.524v8.097ZM177.086 107.938h-2.3v6.936h-1.524v-6.936h-2.248v-1.161h6.058l.014 1.161ZM184.896 111.089a5.141 5.141 0 0 1-.699 2.877 2.409 2.409 0 0 1-3.049.845 2.153 2.153 0 0 1-.779-.702V118h-1.524v-11.226h1.29l.143.975c.197-.34.474-.627.807-.835.337-.199.722-.3 1.112-.291a2.229 2.229 0 0 1 2 1.179c.513.958.754 2.039.699 3.126v.161Zm-1.524-.158a5.43 5.43 0 0 0-.399-2.249 1.293 1.293 0 0 0-1.199-.87 1.344 1.344 0 0 0-.86.281 1.971 1.971 0 0 0-.559.761v4.084c.12.28.314.522.559.701.256.172.559.259.867.249a1.278 1.278 0 0 0 1.196-.764 4.483 4.483 0 0 0 .395-2.039v-.154ZM193.447 113.892a1.186 1.186 0 0 0 .937-.435c.267-.333.401-.753.378-1.179h1.366v.046a2.484 2.484 0 0 1-.769 1.933 2.833 2.833 0 0 1-2.195.782 2.838 2.838 0 0 1-2.038-1.133 4.92 4.92 0 0 1-.815-2.919v-.284a4.944 4.944 0 0 1 .815-2.922 2.66 2.66 0 0 1 2.307-1.151 2.56 2.56 0 0 1 1.968.821 2.947 2.947 0 0 1 .738 2.133v.038h-1.374a2.2 2.2 0 0 0-.35-1.315 1.12 1.12 0 0 0-.954-.505 1.272 1.272 0 0 0-1.227.824 4.994 4.994 0 0 0-.378 2.077v.284c-.028.721.1 1.439.375 2.105a1.272 1.272 0 0 0 1.216.8ZM200.324 112.092l.118.548h.046l1.584-5.863h1.664l-2.888 9.371a4.336 4.336 0 0 1-.773 1.424 1.745 1.745 0 0 1-1.398.593 2.117 2.117 0 0 1-.405-.042 8.283 8.283 0 0 1-.427-.095l.171-1.122c.073.013.147.023.221.028h.23a.816.816 0 0 0 .699-.379 2.99 2.99 0 0 0 .413-.898l.276-.839-2.545-8.069h1.657l1.357 5.343ZM210.913 114.874h-1.517v-2.94a4.013 4.013 0 0 1-.64.148 4.427 4.427 0 0 1-.64.049 3.007 3.007 0 0 1-2.181-.74c-.508-.494-.763-1.272-.763-2.333v-2.295h1.518v2.295c-.043.518.08 1.036.349 1.48a1.309 1.309 0 0 0 1.088.432c.214-.002.428-.02.639-.057.217-.039.431-.093.64-.161v-3.975h1.531l-.024 8.097ZM217.296 114.874a10.674 10.674 0 0 1-.157-.656 4.777 4.777 0 0 1-.07-.572c-.205.39-.494.729-.846.993-.345.26-.767.399-1.199.393a2.112 2.112 0 0 1-1.664-.645 2.546 2.546 0 0 1-.577-1.754 2.21 2.21 0 0 1 .804-1.807 3.422 3.422 0 0 1 2.234-.66h1.241v-.831a1.817 1.817 0 0 0-.328-1.158 1.138 1.138 0 0 0-.941-.417 1.11 1.11 0 0 0-.877.35 1.318 1.318 0 0 0-.325.923h-1.451v-.046a2.053 2.053 0 0 1 .73-1.662 2.873 2.873 0 0 1 2.035-.723 2.721 2.721 0 0 1 1.947.701 2.66 2.66 0 0 1 .748 2.021v3.796c0 .302.02.603.06.902.036.288.095.573.175.852h-1.539Zm-1.961-1.01c.401.004.79-.132 1.101-.386.303-.236.522-.563.626-.933v-1.442H215.8a1.39 1.39 0 0 0-1.098.449 1.548 1.548 0 0 0-.395 1.074c-.017.321.078.639.27.898a.908.908 0 0 0 .762.354l-.004-.014ZM223.586 113.892a1.188 1.188 0 0 0 .937-.435c.266-.333.4-.753.377-1.179h1.367v.046a2.516 2.516 0 0 1-.769 1.933 2.837 2.837 0 0 1-2.197.782 2.845 2.845 0 0 1-2.04-1.133 4.92 4.92 0 0 1-.815-2.919v-.284a4.944 4.944 0 0 1 .815-2.922 2.66 2.66 0 0 1 2.307-1.151 2.571 2.571 0 0 1 1.972.821 2.95 2.95 0 0 1 .734 2.133v.038h-1.377a2.214 2.214 0 0 0-.35-1.315 1.12 1.12 0 0 0-.954-.505 1.26 1.26 0 0 0-1.227.824 4.978 4.978 0 0 0-.378 2.077v.284a5.056 5.056 0 0 0 .374 2.105 1.274 1.274 0 0 0 1.224.8ZM233.944 114.874h-1.524v-3.462h-2.748v3.462h-1.524v-8.097h1.524v3.509h2.748v-3.509h1.524v8.097ZM235.846 110.742a4.877 4.877 0 0 1 .849-2.961 2.965 2.965 0 0 1 2.341-1.154 2.95 2.95 0 0 1 2.34 1.154c.599.867.898 1.907.853 2.961v.203a4.829 4.829 0 0 1-.849 2.958 2.976 2.976 0 0 1-2.342 1.144 2.97 2.97 0 0 1-2.343-1.144 4.835 4.835 0 0 1-.849-2.958v-.203Zm1.521.203c-.028.73.115 1.457.416 2.123a1.368 1.368 0 0 0 2.006.602c.223-.147.398-.357.504-.602.297-.661.44-1.381.416-2.105v-.204a4.682 4.682 0 0 0-.42-2.105 1.363 1.363 0 0 0-1.253-.835 1.356 1.356 0 0 0-1.253.835 4.723 4.723 0 0 0-.416 2.105v.186ZM244.177 105.339h-1.57v-1.403h1.559l.011 1.403Zm1.576 9.535h-1.517v-8.097h1.517v8.097Zm1.671-9.549h-1.559v-1.403h1.559v1.403ZM251.623 110.742a4.852 4.852 0 0 1 .853-2.961 2.953 2.953 0 0 1 2.339-1.154 2.946 2.946 0 0 1 2.339 1.154c.599.867.9 1.906.856 2.961v.203a4.802 4.802 0 0 1-.853 2.958 2.97 2.97 0 0 1-4.681 0 4.809 4.809 0 0 1-.853-2.958v-.203Zm1.524.203c-.028.73.113 1.457.413 2.123a1.35 1.35 0 0 0 1.269.824 1.322 1.322 0 0 0 1.241-.828c.299-.66.442-1.38.416-2.105v-.203a4.68 4.68 0 0 0-.42-2.105 1.36 1.36 0 0 0-2.005-.608c-.223.149-.397.36-.501.608a4.731 4.731 0 0 0-.413 2.105v.189ZM259.618 110.931a6.025 6.025 0 0 1 .7-3.126 2.304 2.304 0 0 1 2.996-.958c.3.154.563.374.769.642v-4.294h1.517v4.354a2.26 2.26 0 0 1 .783-.681 2.209 2.209 0 0 1 1.049-.242 2.23 2.23 0 0 1 2.006 1.179c.513.959.755 2.04.7 3.126v.158a5.15 5.15 0 0 1-.7 2.877 2.256 2.256 0 0 1-1.989 1.08 2.4 2.4 0 0 1-1.048-.221 2.172 2.172 0 0 1-.787-.649v3.831h-1.517v-3.792a2.2 2.2 0 0 1-.776.621 2.352 2.352 0 0 1-1.011.21 2.234 2.234 0 0 1-1.982-1.084 5.18 5.18 0 0 1-.699-2.873l-.011-.158Zm1.511.158c-.032.701.099 1.4.381 2.042a1.245 1.245 0 0 0 1.188.761c.295.008.585-.078.829-.246a1.84 1.84 0 0 0 .566-.701v-4.175a1.87 1.87 0 0 0-.563-.702 1.33 1.33 0 0 0-.825-.263 1.254 1.254 0 0 0-1.192.874 5.659 5.659 0 0 0-.384 2.259v.151Zm7.505-.158a5.398 5.398 0 0 0-.402-2.256 1.29 1.29 0 0 0-1.202-.877 1.343 1.343 0 0 0-.864.284 1.895 1.895 0 0 0-.556.772v4.07a1.7 1.7 0 0 0 .563.701c.257.174.561.263.871.253a1.274 1.274 0 0 0 1.195-.768 4.482 4.482 0 0 0 .395-2.035v-.144ZM277.567 107.938h-2.287v6.936h-1.524v-6.936h-2.248v-1.161h6.059v1.161ZM283.373 114.874a10.47 10.47 0 0 1-.154-.656 3.532 3.532 0 0 1-.069-.572 2.99 2.99 0 0 1-.85.993 1.942 1.942 0 0 1-1.199.393 2.088 2.088 0 0 1-1.661-.645 2.53 2.53 0 0 1-.58-1.754 2.223 2.223 0 0 1 .804-1.807 3.431 3.431 0 0 1 2.237-.66h1.238v-.831c.025-.412-.09-.82-.325-1.158a1.128 1.128 0 0 0-.944-.417 1.11 1.11 0 0 0-.877.35 1.324 1.324 0 0 0-.326.923h-1.447v-.046a2.074 2.074 0 0 1 .734-1.662 2.863 2.863 0 0 1 2.031-.723 2.733 2.733 0 0 1 1.951.702c.258.265.458.583.586.931.128.348.182.719.159 1.089v3.796a6.97 6.97 0 0 0 .227 1.754h-1.535Zm-1.957-1.01c.399.004.788-.133 1.097-.386.303-.236.522-.563.626-.933v-1.442h-1.259a1.4 1.4 0 0 0-1.101.449 1.564 1.564 0 0 0-.395 1.074c-.015.321.08.638.269.898a.91.91 0 0 0 .759.354l.004-.014ZM292.655 106.777v8.097h-1.524v-6.918h-2.07v2.337c0 1.592-.193 2.762-.58 3.508a2.06 2.06 0 0 1-1.982 1.101h-.322v-1.213h.231a.91.91 0 0 0 .902-.734 10.06 10.06 0 0 0 .234-2.641v-3.509l5.111-.028ZM296.354 109.784h1.538a2.888 2.888 0 0 1 2.059.701 2.408 2.408 0 0 1 .752 1.828 2.47 2.47 0 0 1-.762 1.86 2.86 2.86 0 0 1-2.06.701h-3.062v-8.097h1.524l.011 3.007Zm0 1.168v2.782h1.538a1.173 1.173 0 0 0 .968-.389c.221-.284.334-.637.318-.997a1.535 1.535 0 0 0-.318-.985 1.143 1.143 0 0 0-.968-.411h-1.538ZM306.6 113.029h.042l2.077-6.252h1.905v8.097h-1.521v-5.329h-.045l-1.916 5.329h-1.028l-1.929-5.395h-.042v5.395h-1.518v-8.097h1.913l2.062 6.252ZM312.676 110.742a4.871 4.871 0 0 1 .85-2.961 2.956 2.956 0 0 1 2.34-1.154 2.95 2.95 0 0 1 2.341 1.154c.598.867.898 1.907.853 2.961v.203a4.808 4.808 0 0 1-.85 2.958 2.973 2.973 0 0 1-3.645.843 2.982 2.982 0 0 1-1.039-.843 4.836 4.836 0 0 1-.85-2.958v-.203Zm1.525.203c-.029.73.112 1.457.412 2.123a1.34 1.34 0 0 0 1.266.824 1.323 1.323 0 0 0 1.244-.828c.298-.66.44-1.381.416-2.105v-.203a4.692 4.692 0 0 0-.419-2.105 1.356 1.356 0 0 0-2.507 0 4.716 4.716 0 0 0-.412 2.105v.189ZM326.646 106.777v8.097h-1.535v-6.918h-2.069v2.337c0 1.592-.194 2.762-.581 3.508a2.06 2.06 0 0 1-1.982 1.101h-.321v-1.213h.23a.91.91 0 0 0 .902-.734c.195-.866.274-1.754.235-2.641v-3.509l5.121-.028ZM328.429 110.742a4.852 4.852 0 0 1 .853-2.961 2.953 2.953 0 0 1 2.339-1.154 2.946 2.946 0 0 1 2.339 1.154c.599.867.9 1.906.856 2.961v.203a4.802 4.802 0 0 1-.853 2.958 2.962 2.962 0 0 1-4.681 0 4.802 4.802 0 0 1-.853-2.958v-.203Zm1.524.203c-.028.73.113 1.457.413 2.123a1.344 1.344 0 0 0 1.265.824 1.337 1.337 0 0 0 1.245-.828c.298-.66.44-1.381.416-2.105v-.203a4.68 4.68 0 0 0-.42-2.105 1.359 1.359 0 0 0-2.506 0 4.731 4.731 0 0 0-.413 2.105v.189ZM341.287 107.956h-3.055v6.918h-1.525v-8.097h4.58v1.179ZM344.381 104.648h-1.521v-1.453h1.521v1.453Zm0 10.24h-1.521v-8.111h1.521v8.111ZM346.734 105.339h-1.563v-1.403h1.563v1.403Zm1.58 9.549h-1.528v-8.111h1.514l.014 8.111Zm1.675-9.549h-1.56v-1.403h1.56v1.403Z" />
    </symbol>
    <symbol id="logo-ru" viewBox="0 0 350 120">
      <path
        d="M71.474 59.237a38.623 38.623 0 0 1-18.537 15.687 38.461 38.461 0 0 1-24.201 1.493 38.577 38.577 0 0 1-20.312-13.29A38.806 38.806 0 0 1 .023 40.301a38.822 38.822 0 0 1 6.826-23.348A38.603 38.603 0 0 1 26.207 2.3a38.46 38.46 0 0 1 24.247-.171 38.597 38.597 0 0 1 19.562 14.377l-15.17 13.03a18.811 18.811 0 0 0-9.005-7.954 18.729 18.729 0 0 0-11.967-.865 18.785 18.785 0 0 0-10.049 6.578 18.898 18.898 0 0 0-4.034 11.338 18.902 18.902 0 0 0 3.625 11.477 18.791 18.791 0 0 0 9.805 6.937 18.728 18.728 0 0 0 11.99-.43 18.804 18.804 0 0 0 9.286-7.624l16.977 10.244Z" />
      <path
        d="M131.754 59.91a38.79 38.79 0 0 1-7.392 22.794 38.571 38.571 0 0 1-19.352 14.053 38.435 38.435 0 0 1-23.886-.081 38.573 38.573 0 0 1-19.257-14.183l15.032-13.3a18.75 18.75 0 0 0 8.95 8.005 18.667 18.667 0 0 0 11.952.92 18.72 18.72 0 0 0 10.059-6.545 18.835 18.835 0 0 0 4.044-11.325 18.837 18.837 0 0 0-3.628-11.465 18.73 18.73 0 0 0-9.814-6.91 18.665 18.665 0 0 0-11.978.48 18.742 18.742 0 0 0-9.235 7.671l-17.13-10.026A38.6 38.6 0 0 1 78.88 23.98a38.437 38.437 0 0 1 24.596-1.355 38.564 38.564 0 0 1 20.395 13.863 38.79 38.79 0 0 1 7.873 23.422h.01ZM168.304 78.441v2.947c0 5.201-2.447 7.803-7.341 7.806h-3.947c-4.894 0-7.342-2.602-7.342-7.806v-30.35c0-5.204 2.448-7.806 7.342-7.806h3.954c4.894 0 7.341 2.602 7.341 7.806v5.182H162.2v-4.733c0-1.794-.914-2.69-2.744-2.687h-1.21c-1.618 0-2.422.895-2.422 2.687v29.434c0 1.793.804 2.688 2.422 2.688h1.507c1.615 0 2.424-.896 2.426-2.688v-2.48h6.125ZM187.305 65.562c3.356.936 5.035 2.69 5.037 5.263v11.517c0 4.563-2.316 6.846-6.95 6.848h-12.309V43.232h10.46c5.44 0 8.161 2.773 8.163 8.318v8.83c0 2.646-1.467 4.267-4.401 4.863v.32Zm-8.1-2.943h2.87c2.33 0 3.496-1.109 3.496-3.326v-7.164c0-2.217-.914-3.326-2.741-3.326h-3.636l.011 13.816Zm0 20.99h4.593c1.615 0 2.423-.662 2.423-1.986V71.449c0-2.175-1.212-3.263-3.636-3.263h-3.38V83.61ZM197.443 89.176V43.218h6.121v45.958h-6.121ZM219.058 48.8v40.376h-6.121V48.8h-5.866v-5.568h17.854V48.8h-5.867ZM235.507 89.176c-4.93 0-7.394-2.602-7.394-7.806V51.101c0-5.246 2.447-7.869 7.341-7.869h5.867c4.894 0 7.341 2.623 7.341 7.87V81.37c0 5.202-2.466 7.804-7.397 7.806h-5.758Zm1.468-5.567h3.125c1.616 0 2.423-.896 2.423-2.688V51.487c0-1.794-.915-2.69-2.744-2.687h-2.867c-1.787 0-2.68.896-2.678 2.687v29.434c0 1.792.914 2.688 2.741 2.688ZM260.185 89.176h-6.122V43.218h15.176v5.568h-9.054v40.39ZM293.151 43.232V89.19h-6.121V48.8h-7.527v32.627c0 5.161-2.358 7.742-7.076 7.742h-1.912v-5.56h.126c1.83 0 2.743-1.109 2.741-3.326v-37.05h19.769ZM318.529 89.176h-6.122V70.618h-3.699l-4.016 18.558h-5.8l4.272-19.134c-2.422-1.066-3.634-3.604-3.636-7.613V51.101c0-5.246 2.339-7.869 7.016-7.869h11.988l-.003 45.944ZM312.407 48.8h-4.017c-1.829 0-2.744 1.108-2.744 3.326v9.918c0 2.221.915 3.331 2.744 3.329h4.017V48.8ZM326.244 89.176v9.15h-6.121V84.054h2.23a85.667 85.667 0 0 0 1.689-4.911c.489-1.576.926-3.2 1.307-4.863.381-1.663.699-3.466.989-5.406.291-1.94.5-4.14.672-6.592.171-2.452.293-5.224.381-8.318.087-3.094.15-6.666.192-10.718h18.364v40.808h2.87v14.272h-6.058v-9.15h-16.515ZM339.826 48.8h-6.761c0 3.415-.042 6.496-.126 9.244-.084 2.748-.211 5.18-.381 7.297a78.12 78.12 0 0 1-.64 5.613 71.545 71.545 0 0 1-.86 4.561 42.532 42.532 0 0 1-1.147 4.157c-.447 1.351-.926 2.839-1.437 4.414h11.352V48.8ZM152.607 110.822l-.111 3.235h-1.353V112h-.762v-1.178h2.226ZM144.832 112v-8.531h1.477v7.365h3.779v-7.365h1.476V112h-6.732Zm11.643.117a3.39 3.39 0 0 1-1.272-.228 2.814 2.814 0 0 1-.961-.651 2.862 2.862 0 0 1-.603-.978 3.421 3.421 0 0 1-.211-1.213v-.235c0-.496.072-.945.217-1.347.144-.403.345-.746.603-1.031.258-.289.563-.51.914-.663a2.852 2.852 0 0 1 1.143-.228c.453 0 .849.076 1.189.228.34.153.621.368.844.645.226.273.394.6.504.979.113.378.17.796.17 1.253v.604h-4.899v-1.014h3.504v-.111a1.983 1.983 0 0 0-.152-.715 1.219 1.219 0 0 0-.416-.539c-.188-.137-.438-.205-.75-.205-.235 0-.444.051-.627.152-.18.098-.33.241-.451.428a2.274 2.274 0 0 0-.282.68 3.838 3.838 0 0 0-.093.884v.235c0 .277.037.535.111.773.078.235.191.44.34.616.148.175.328.314.539.416.211.097.451.146.721.146.339 0 .642-.068.908-.205.265-.137.496-.33.691-.58l.744.721c-.136.199-.314.39-.533.574-.219.18-.486.326-.803.439-.312.114-.675.17-1.089.17Zm7.968-3.808v1.113h-3.281v-1.113h3.281Zm-2.871-2.649V112h-1.412v-6.34h1.412Zm3.891 0V112h-1.412v-6.34h1.412Zm4.447 0V112h-1.418v-6.34h1.418Zm2.08 0v1.113h-5.543v-1.113h5.543Zm2.362 1.219v7.559h-1.413v-8.778h1.301l.112 1.219Zm4.13 1.892v.124c0 .46-.054.888-.164 1.283-.105.39-.263.732-.474 1.025a2.184 2.184 0 0 1-.768.674c-.305.16-.656.24-1.055.24-.394 0-.74-.072-1.037-.217a2.114 2.114 0 0 1-.744-.627 3.389 3.389 0 0 1-.492-.949 6.105 6.105 0 0 1-.258-1.207v-.474c.051-.465.137-.887.258-1.266.125-.379.289-.705.492-.979.203-.273.451-.484.744-.632a2.235 2.235 0 0 1 1.026-.223c.398 0 .752.078 1.06.234.309.153.569.371.78.657.211.281.369.621.474 1.019.106.395.158.834.158 1.318Zm-1.412.124v-.124c0-.292-.027-.564-.082-.814a2.087 2.087 0 0 0-.258-.668 1.256 1.256 0 0 0-.451-.445 1.219 1.219 0 0 0-.65-.164c-.25 0-.465.043-.645.129-.179.082-.33.197-.451.345a1.637 1.637 0 0 0-.281.522 3.192 3.192 0 0 0-.141.638v1.137c.047.281.127.539.241.774.113.234.273.421.48.562.211.137.48.205.809.205.254 0 .47-.054.65-.164.18-.109.326-.26.439-.451a2.16 2.16 0 0 0 .258-.674 3.81 3.81 0 0 0 .082-.808Zm8.192 2.097c.23 0 .437-.045.621-.135a1.17 1.17 0 0 0 .451-.386c.117-.164.182-.354.193-.569h1.33c-.007.41-.128.784-.363 1.119a2.515 2.515 0 0 1-.932.803 2.793 2.793 0 0 1-1.283.293c-.484 0-.906-.082-1.265-.246a2.496 2.496 0 0 1-.897-.691 3.047 3.047 0 0 1-.539-1.014 4.19 4.19 0 0 1-.176-1.23v-.206c0-.437.059-.847.176-1.23.121-.387.301-.727.539-1.02.238-.292.537-.521.897-.685.359-.168.779-.252 1.259-.252.508 0 .954.102 1.336.305.383.199.684.478.903.838.222.355.338.769.345 1.242h-1.33a1.41 1.41 0 0 0-.175-.633 1.17 1.17 0 0 0-.434-.457 1.24 1.24 0 0 0-.662-.17c-.285 0-.522.059-.709.176a1.181 1.181 0 0 0-.44.468 2.316 2.316 0 0 0-.228.663 4.312 4.312 0 0 0-.065.755v.206c0 .261.022.515.065.761.043.246.117.467.223.662.109.192.257.346.445.463.187.114.426.17.715.17Zm3.41-2.092v-.134c0-.457.066-.881.199-1.272.133-.394.324-.736.574-1.025.254-.293.563-.52.926-.68a3.013 3.013 0 0 1 1.242-.246c.465 0 .879.082 1.242.246.368.16.678.387.932.68.254.289.447.631.58 1.025.133.391.199.815.199 1.272v.134c0 .457-.066.881-.199 1.272-.133.39-.326.732-.58 1.025a2.683 2.683 0 0 1-.926.68c-.363.16-.775.24-1.236.24-.465 0-.881-.08-1.248-.24a2.693 2.693 0 0 1-.926-.68 3.048 3.048 0 0 1-.58-1.025 3.926 3.926 0 0 1-.199-1.272Zm1.412-.134v.134c0 .286.029.555.088.809.058.254.15.477.275.668.125.191.285.342.481.451.195.11.427.164.697.164.262 0 .488-.054.68-.164.195-.109.355-.26.48-.451a2.06 2.06 0 0 0 .276-.668c.062-.254.093-.523.093-.809v-.134c0-.282-.031-.547-.093-.797a2.052 2.052 0 0 0-.282-.674 1.345 1.345 0 0 0-.48-.457 1.327 1.327 0 0 0-.686-.17c-.265 0-.496.057-.691.17-.192.109-.35.262-.475.457s-.217.42-.275.674c-.059.25-.088.515-.088.797Zm8.748.521h-2.027l-.012-.996h1.664c.273 0 .498-.027.674-.082a.778.778 0 0 0 .398-.246.658.658 0 0 0 .129-.41.739.739 0 0 0-.076-.346.588.588 0 0 0-.234-.246 1.049 1.049 0 0 0-.387-.141 2.693 2.693 0 0 0-.533-.047h-1.155V112h-1.412v-6.34h2.567c.406 0 .771.035 1.095.106.329.07.608.177.838.322.231.144.407.328.528.551.125.218.187.476.187.773 0 .195-.043.379-.129.551a1.318 1.318 0 0 1-.369.457 2.06 2.06 0 0 1-.603.328 3.117 3.117 0 0 1-.821.152l-.322.387Zm0 2.713h-2.437l.562-1.113h1.875c.25 0 .457-.032.621-.094a.73.73 0 0 0 .363-.27.742.742 0 0 0 .123-.427.784.784 0 0 0-.117-.434.715.715 0 0 0-.363-.275c-.16-.067-.369-.1-.627-.1h-1.611l.011-.996h1.916l.405.387c.402.027.736.113 1.002.258.265.144.465.326.597.544.133.219.2.458.2.715 0 .297-.057.559-.17.785-.11.227-.274.416-.493.569a2.402 2.402 0 0 1-.791.34 4.642 4.642 0 0 1-1.066.111Zm5.156-5.121v7.559h-1.412v-8.778h1.301l.111 1.219Zm4.131 1.892v.124c0 .46-.055.888-.164 1.283a3.13 3.13 0 0 1-.475 1.025 2.18 2.18 0 0 1-.767.674c-.305.16-.656.24-1.055.24-.394 0-.74-.072-1.037-.217a2.114 2.114 0 0 1-.744-.627 3.389 3.389 0 0 1-.492-.949 6.105 6.105 0 0 1-.258-1.207v-.474c.051-.465.137-.887.258-1.266.125-.379.289-.705.492-.979.203-.273.451-.484.744-.632a2.233 2.233 0 0 1 1.025-.223c.399 0 .752.078 1.061.234.309.153.568.371.779.657.211.281.369.621.475 1.019.105.395.158.834.158 1.318Zm-1.412.124v-.124c0-.292-.027-.564-.082-.814a2.134 2.134 0 0 0-.258-.668 1.256 1.256 0 0 0-.451-.445 1.221 1.221 0 0 0-.65-.164c-.25 0-.465.043-.645.129-.18.082-.33.197-.451.345a1.637 1.637 0 0 0-.281.522 3.06 3.06 0 0 0-.141.638v1.137c.047.281.127.539.24.774.114.234.274.421.481.562.211.137.48.205.808.205.254 0 .471-.054.651-.164.179-.109.326-.26.439-.451a2.21 2.21 0 0 0 .258-.674 3.81 3.81 0 0 0 .082-.808Zm5.408 3.222c-.469 0-.892-.076-1.271-.228a2.804 2.804 0 0 1-.961-.651 2.88 2.88 0 0 1-.604-.978 3.444 3.444 0 0 1-.211-1.213v-.235c0-.496.073-.945.217-1.347.145-.403.346-.746.604-1.031.257-.289.562-.51.914-.663a2.844 2.844 0 0 1 1.142-.228c.453 0 .85.076 1.19.228.34.153.621.368.844.645.226.273.394.6.503.979.114.378.17.796.17 1.253v.604h-4.898v-1.014h3.504v-.111a1.984 1.984 0 0 0-.153-.715 1.205 1.205 0 0 0-.416-.539c-.187-.137-.437-.205-.75-.205-.234 0-.443.051-.627.152-.179.098-.33.241-.451.428a2.247 2.247 0 0 0-.281.68 3.836 3.836 0 0 0-.094.884v.235c0 .277.037.535.112.773.078.235.191.44.34.616.148.175.328.314.539.416.211.097.451.146.72.146.34 0 .643-.068.908-.205a2.08 2.08 0 0 0 .692-.58l.744.721c-.137.199-.314.39-.533.574-.219.18-.487.326-.803.439-.312.114-.676.17-1.09.17Zm7.406-1.828 1.887-4.629h1.225l-2.631 6.34h-.961l-2.625-6.34h1.225l1.88 4.629Zm-2.244-4.629V112h-1.412v-6.34h1.412Zm4.489 6.34v-6.34h1.418V112h-1.418Zm5.795.117a3.39 3.39 0 0 1-1.272-.228 2.814 2.814 0 0 1-.961-.651 2.862 2.862 0 0 1-.603-.978 3.421 3.421 0 0 1-.211-1.213v-.235c0-.496.072-.945.216-1.347.145-.403.346-.746.604-1.031.258-.289.562-.51.914-.663a2.849 2.849 0 0 1 1.143-.228c.453 0 .849.076 1.189.228.34.153.621.368.844.645.226.273.394.6.504.979.113.378.17.796.17 1.253v.604h-4.899v-1.014h3.504v-.111a1.983 1.983 0 0 0-.152-.715 1.219 1.219 0 0 0-.416-.539c-.188-.137-.438-.205-.75-.205-.235 0-.444.051-.627.152-.18.098-.33.241-.451.428a2.274 2.274 0 0 0-.282.68 3.838 3.838 0 0 0-.093.884v.235c0 .277.037.535.111.773.078.235.191.44.34.616.148.175.328.314.539.416.211.097.451.146.721.146.339 0 .642-.068.908-.205.265-.137.496-.33.691-.58l.744.721c-.136.199-.314.39-.533.574-.219.18-.486.326-.803.439-.312.114-.675.17-1.089.17Zm7.968-3.808v1.113h-3.281v-1.113h3.281Zm-2.871-2.649V112h-1.412v-6.34h1.412Zm3.891 0V112h-1.412v-6.34h1.412Zm5.836 2.649v1.113h-3.281v-1.113h3.281Zm-2.871-2.649V112h-1.412v-6.34h1.412Zm3.89 0V112h-1.412v-6.34h1.412Zm1.237 3.24v-.134c0-.457.066-.881.199-1.272.133-.394.324-.736.574-1.025.254-.293.563-.52.926-.68a3.013 3.013 0 0 1 1.242-.246c.465 0 .879.082 1.242.246.367.16.678.387.932.68.254.289.447.631.58 1.025.133.391.199.815.199 1.272v.134c0 .457-.066.881-.199 1.272-.133.39-.326.732-.58 1.025a2.693 2.693 0 0 1-.926.68c-.363.16-.775.24-1.236.24-.465 0-.881-.08-1.248-.24a2.683 2.683 0 0 1-.926-.68 3.048 3.048 0 0 1-.58-1.025 3.926 3.926 0 0 1-.199-1.272Zm1.412-.134v.134c0 .286.029.555.088.809.058.254.15.477.275.668.125.191.285.342.48.451.196.11.428.164.698.164.261 0 .488-.054.679-.164.196-.109.356-.26.481-.451s.217-.414.275-.668c.063-.254.094-.523.094-.809v-.134c0-.282-.031-.547-.094-.797a2.03 2.03 0 0 0-.281-.674 1.345 1.345 0 0 0-.48-.457 1.327 1.327 0 0 0-.686-.17c-.266 0-.496.057-.691.17-.192.109-.35.262-.475.457s-.217.42-.275.674c-.059.25-.088.515-.088.797Zm7.125 1.172 2.49-4.278h1.412V112h-1.412v-4.283l-2.49 4.283h-1.412v-6.34h1.412v4.278Zm2.115-6.715h1.049c0 .324-.078.611-.235.861a1.563 1.563 0 0 1-.656.58c-.281.141-.617.211-1.008.211-.589 0-1.056-.152-1.4-.457-.34-.309-.51-.707-.51-1.195h1.049c0 .218.064.412.193.58.133.164.356.246.668.246.309 0 .528-.082.657-.246a.927.927 0 0 0 .193-.58Zm6 5.677v-.134c0-.457.066-.881.199-1.272.133-.394.324-.736.574-1.025.254-.293.563-.52.926-.68a3.013 3.013 0 0 1 1.242-.246c.465 0 .879.082 1.243.246.367.16.677.387.931.68.254.289.447.631.58 1.025.133.391.2.815.2 1.272v.134c0 .457-.067.881-.2 1.272-.133.39-.326.732-.58 1.025a2.683 2.683 0 0 1-.926.68c-.363.16-.775.24-1.236.24-.465 0-.881-.08-1.248-.24a2.693 2.693 0 0 1-.926-.68 3.048 3.048 0 0 1-.58-1.025 3.926 3.926 0 0 1-.199-1.272Zm1.412-.134v.134c0 .286.029.555.088.809s.15.477.275.668c.125.191.286.342.481.451.195.11.428.164.697.164.262 0 .488-.054.68-.164.195-.109.355-.26.48-.451a2.06 2.06 0 0 0 .276-.668c.062-.254.093-.523.093-.809v-.134c0-.282-.031-.547-.093-.797a2.052 2.052 0 0 0-.282-.674 1.345 1.345 0 0 0-.48-.457 1.325 1.325 0 0 0-.686-.17c-.265 0-.496.057-.691.17-.191.109-.35.262-.475.457s-.216.42-.275.674c-.059.25-.088.515-.088.797Zm13.195.14v.123c0 .45-.05.864-.152 1.242a3.004 3.004 0 0 1-.439.979 2.067 2.067 0 0 1-.727.645 2.086 2.086 0 0 1-.996.228 2.06 2.06 0 0 1-.867-.17 1.734 1.734 0 0 1-.621-.474 2.546 2.546 0 0 1-.405-.727 4.634 4.634 0 0 1-.222-.926v-1.834c.047-.359.119-.687.217-.984.101-.301.236-.561.404-.779.172-.219.379-.387.621-.504.242-.121.529-.182.861-.182.305 0 .58.055.826.164.246.105.463.258.651.457a2.5 2.5 0 0 1 .469.709c.125.273.218.582.281.926.066.344.099.713.099 1.107Zm-1.412.123v-.123c0-.246-.015-.48-.047-.703a3.02 3.02 0 0 0-.146-.609 1.752 1.752 0 0 0-.246-.487 1.048 1.048 0 0 0-.861-.439c-.254 0-.465.043-.633.129a.862.862 0 0 0-.375.351 1.42 1.42 0 0 0-.159.516v2.496c.028.164.084.309.17.434.09.125.217.224.381.299.164.07.373.105.627.105.235 0 .432-.049.592-.146.164-.102.297-.243.398-.422.106-.18.182-.389.229-.627.047-.239.07-.496.07-.774Zm-6.357 0v-.123c0-.394.031-.763.094-1.107.062-.344.156-.653.281-.926a2.6 2.6 0 0 1 .474-.709c.188-.199.405-.352.651-.457.246-.109.521-.164.826-.164.328 0 .611.061.85.182.238.117.439.285.603.504.168.218.301.478.399.779.101.297.175.625.222.984v1.764c-.043.344-.115.66-.217.949a2.62 2.62 0 0 1-.398.75 1.696 1.696 0 0 1-.609.492c-.243.117-.53.176-.862.176-.375 0-.707-.076-.996-.228a2.055 2.055 0 0 1-.726-.645 3.078 3.078 0 0 1-.446-.979 4.99 4.99 0 0 1-.146-1.242Zm1.412-.123v.123c0 .278.021.535.064.774.047.238.12.447.217.627.098.175.227.314.387.416.16.101.357.152.592.152.258 0 .468-.039.633-.117a.876.876 0 0 0 .375-.322c.089-.137.148-.293.175-.469v-2.426a1.333 1.333 0 0 0-.164-.516.862.862 0 0 0-.375-.351c-.164-.086-.375-.129-.633-.129-.234 0-.433.059-.597.176-.16.117-.291.279-.393.486-.097.203-.17.441-.217.715a5.468 5.468 0 0 0-.064.861Zm1.734 5.532V103h1.418v11.438h-1.418Zm8.391-8.778V112h-1.418v-6.34h1.418Zm2.08 0v1.113h-5.543v-1.113h5.543Zm4.424 5.069v-3.024c0-.226-.041-.422-.123-.586a.863.863 0 0 0-.375-.381c-.164-.09-.371-.134-.621-.134-.231 0-.43.039-.598.117a.966.966 0 0 0-.393.316.768.768 0 0 0-.14.451h-1.406c0-.25.06-.492.181-.726.121-.235.297-.444.528-.627.23-.184.505-.328.826-.434.32-.105.679-.158 1.078-.158.476 0 .898.08 1.266.24.371.16.662.403.873.727.214.32.322.722.322 1.207v2.818c0 .289.019.549.058.779.043.227.104.424.182.592V112h-1.447a2.47 2.47 0 0 1-.158-.58 4.622 4.622 0 0 1-.053-.691Zm.205-2.584.012.873h-1.014c-.262 0-.492.025-.691.076-.2.047-.366.117-.498.211a.905.905 0 0 0-.299.34.984.984 0 0 0-.1.451.94.94 0 0 0 .117.463.827.827 0 0 0 .34.322c.152.078.336.117.551.117.289 0 .541-.059.756-.176.219-.121.39-.267.515-.439.125-.176.192-.342.2-.498l.457.627c-.047.16-.127.332-.241.515a2.47 2.47 0 0 1-.445.528 2.204 2.204 0 0 1-1.517.562c-.415 0-.784-.082-1.108-.246a1.969 1.969 0 0 1-.762-.674 1.75 1.75 0 0 1-.275-.967c0-.335.063-.632.187-.89a1.74 1.74 0 0 1 .563-.656c.25-.176.555-.309.914-.399.359-.094.77-.14 1.231-.14h1.107Zm6.949-2.485v1.125h-3.094v-1.125h3.094Zm1.108 0V112h-1.413v-6.34h1.413Zm-4.547 0h1.394l-.17 3.135c-.023.465-.07.875-.14 1.23a4.16 4.16 0 0 1-.27.909 1.92 1.92 0 0 1-.416.609 1.55 1.55 0 0 1-.574.346 2.297 2.297 0 0 1-.738.111h-.44l-.006-1.16.223-.018a.856.856 0 0 0 .375-.111.857.857 0 0 0 .27-.281c.078-.121.14-.278.187-.469a4.43 4.43 0 0 0 .117-.68c.031-.261.055-.566.071-.914l.117-2.707Zm7.095 2.016h1.87c.546 0 1.011.092 1.394.275.383.184.674.44.873.768.203.324.305.695.305 1.113 0 .309-.057.596-.17.861a1.906 1.906 0 0 1-.504.686 2.322 2.322 0 0 1-.809.457 3.334 3.334 0 0 1-1.089.164h-2.807v-6.34h1.418v5.221h1.389c.281 0 .505-.049.673-.147a.874.874 0 0 0 .364-.38 1.148 1.148 0 0 0 0-1.008.908.908 0 0 0-.364-.393c-.168-.101-.392-.152-.673-.152h-1.87v-1.125Zm9.34 2.613 1.887-4.629h1.225l-2.631 6.34h-.961l-2.625-6.34h1.224l1.881 4.629Zm-2.244-4.629V112h-1.412v-6.34h1.412Zm4.488 6.34v-6.34h1.418V112h-1.418Zm2.731-3.1v-.134c0-.457.066-.881.199-1.272.133-.394.324-.736.574-1.025.254-.293.563-.52.926-.68a3.013 3.013 0 0 1 1.242-.246c.465 0 .879.082 1.242.246.368.16.678.387.932.68.254.289.447.631.58 1.025.133.391.199.815.199 1.272v.134c0 .457-.066.881-.199 1.272-.133.39-.326.732-.58 1.025a2.683 2.683 0 0 1-.926.68c-.363.16-.775.24-1.236.24-.465 0-.881-.08-1.248-.24a2.693 2.693 0 0 1-.926-.68 3.048 3.048 0 0 1-.58-1.025 3.926 3.926 0 0 1-.199-1.272Zm1.412-.134v.134c0 .286.029.555.088.809.058.254.15.477.275.668.125.191.285.342.481.451.195.11.427.164.697.164.262 0 .488-.054.68-.164.195-.109.355-.26.48-.451a2.06 2.06 0 0 0 .276-.668c.062-.254.093-.523.093-.809v-.134c0-.282-.031-.547-.093-.797a2.052 2.052 0 0 0-.282-.674 1.345 1.345 0 0 0-.48-.457 1.327 1.327 0 0 0-.686-.17c-.265 0-.496.057-.691.17-.192.109-.35.262-.475.457s-.217.42-.275.674c-.059.25-.088.515-.088.797Zm9.832-3.106v1.125h-3.094v-1.125h3.094Zm1.107 0V112h-1.412v-6.34h1.412Zm-4.546 0h1.394l-.17 3.135c-.023.465-.07.875-.14 1.23a4.16 4.16 0 0 1-.27.909 1.92 1.92 0 0 1-.416.609 1.55 1.55 0 0 1-.574.346 2.297 2.297 0 0 1-.738.111h-.44l-.006-1.16.223-.018a.864.864 0 0 0 .375-.111.845.845 0 0 0 .269-.281c.079-.121.141-.278.188-.469a4.43 4.43 0 0 0 .117-.68c.031-.261.055-.566.07-.914l.118-2.707Zm5.777 3.24v-.134c0-.457.066-.881.199-1.272.133-.394.324-.736.574-1.025.254-.293.563-.52.926-.68a3.013 3.013 0 0 1 1.242-.246c.465 0 .879.082 1.242.246.368.16.678.387.932.68.254.289.447.631.58 1.025.133.391.199.815.199 1.272v.134c0 .457-.066.881-.199 1.272-.133.39-.326.732-.58 1.025a2.683 2.683 0 0 1-.926.68c-.363.16-.775.24-1.236.24-.465 0-.881-.08-1.248-.24a2.693 2.693 0 0 1-.926-.68 3.048 3.048 0 0 1-.58-1.025 3.926 3.926 0 0 1-.199-1.272Zm1.412-.134v.134c0 .286.029.555.088.809s.15.477.275.668c.125.191.285.342.481.451.195.11.427.164.697.164.262 0 .488-.054.68-.164.195-.109.355-.26.48-.451a2.06 2.06 0 0 0 .276-.668c.062-.254.093-.523.093-.809v-.134c0-.282-.031-.547-.093-.797a2.052 2.052 0 0 0-.282-.674 1.345 1.345 0 0 0-.48-.457 1.327 1.327 0 0 0-.686-.17c-.265 0-.496.057-.691.17-.191.109-.35.262-.475.457s-.216.42-.275.674c-.059.25-.088.515-.088.797Zm9.885-3.106v1.125h-2.766V112h-1.412v-6.34h4.178Zm2.279 4.278 2.49-4.278h1.412V112h-1.412v-4.283l-2.49 4.283h-1.412v-6.34h1.412v4.278Zm6.856 0 2.49-4.278h1.412V112h-1.412v-4.283l-2.49 4.283h-1.413v-6.34h1.413v4.278Z" />
    </symbol>

    <!-- Тут знаходяться background css svg-sprite -->
    <style>
      .img {
        display: none;
      }

      .img:target {
        display: inline;
      }
    </style>
  </defs>
  <g id="header-document" class="img" viewBox="0 0 16 20" fill="none">
    <path d="M11.5 14.5h-7m7-3.6h-7m1.75-3.6H4.5" stroke="#20B6C9" stroke-opacity=".6" stroke-width="2"
      stroke-linecap="round" stroke-linejoin="round" />
    <path
      d="M9.75 1h-7c-.464 0-.91.19-1.237.527A1.826 1.826 0 0 0 1 2.8v14.4c0 .477.184.935.513 1.273.328.337.773.527 1.237.527h10.5c.464 0 .91-.19 1.237-.527.329-.338.513-.796.513-1.273V6.4M9.75 1 15 6.4M9.75 1v5.4H15"
      stroke="#20B6C9" stroke-width="2" stroke-linecap="round" stroke-linejoin="round" />
  </g>
  <g id="header-locate" class="img" viewBox="0 0 19 22" fill="none">
    <path
      d="M18 9.182C18 15.546 9.5 21 9.5 21S1 15.546 1 9.182c0-2.17.896-4.251 2.49-5.786C5.084 1.862 7.246 1 9.5 1s4.416.862 6.01 2.396C17.105 4.931 18 7.012 18 9.182Z"
      stroke="#20B6C9" stroke-width="2" stroke-linecap="round" stroke-linejoin="round" />
    <path
      d="M9.5 12.292c1.565 0 2.833-1.306 2.833-2.918s-1.268-2.92-2.833-2.92c-1.565 0-2.833 1.308-2.833 2.92 0 1.612 1.268 2.918 2.833 2.918Z"
      stroke="#20B6C9" stroke-opacity=".7" stroke-width="2" stroke-linecap="round" stroke-linejoin="round" />
  </g>
  <g id="header-telephone" class="img" viewBox="0 0 20 20" fill="none">
    <path
      d="M19 14.477v2.71c.004 1.035-.928 1.9-1.974 1.806C8 19 1 11.935 1.007 2.969.913 1.93 1.774 1.001 2.808 1h2.715c.44-.004.865.151 1.198.437.947.812 1.556 3.57 1.322 4.667-.183.856-1.046 1.455-1.633 2.04a14.467 14.467 0 0 0 5.43 5.42c.587-.585 1.187-1.446 2.045-1.629 1.1-.234 3.877.376 4.686 1.329.287.338.44.77.428 1.213Z"
      stroke="#20B6C9" stroke-width="2" stroke-linecap="round" stroke-linejoin="round" />
    <path
      d="M12.5 4.5c.737.144 1.469.469 2 1 .531.531.856 1.263 1 2M13 1c1.531.17 2.91.911 4 2 1.09 1.089 1.828 2.469 2 4"
      stroke="#20B6C9" stroke-opacity=".6" stroke-width="2" stroke-linecap="round" stroke-linejoin="round" />
  </g>
  <g id="header-arrow" class="img" viewBox="0 0 13 8" fill="none">
    <path
      d="m6.5 6.5-.673.74.673.611.673-.611L6.5 6.5ZM1.673.76A1 1 0 1 0 .327 2.24L1.673.76Zm11 1.48A1 1 0 0 0 11.327.76l1.346 1.48Zm-12.346 0 5.5 5 1.346-1.48-5.5-5L.327 2.24Zm6.846 5 5.5-5L11.327.76l-5.5 5 1.346 1.48Z"
      fill="#CCD2D5" />
  </g>
  <g id="header-burger" class="img" viewBox="0 0 32 21" fill="none">
    <path d="M1 1h30M1 10.5h30M1 20h19" stroke="#2E3A40" stroke-width="2" stroke-linecap="round"
      stroke-linejoin="round" />
  </g>
  <g id="header-burger-close" class="img" viewBox="0 0 20 20" fill="none">
    <path d="m1 1 9 9m0 0 9 9m-9-9 9-9m-9 9-9 9" stroke="#2E3A40" stroke-width="2" stroke-linecap="round"
      stroke-linejoin="round" />
  </g>

  <g id="youtube" class="img" fill="none" viewBox="0 0 22 17">
    <path stroke="#404649" stroke-linejoin="round" stroke-width="1.5"
      d="M3.165 15.253a2.46 2.46 0 0 1-.999-.576 2.38 2.38 0 0 1-.614-.96C.85 11.837.642 3.99 1.994 2.44a2.625 2.625 0 0 1 1.77-.864c3.629-.38 13.789-.33 15.076.127.363.115.694.308.968.566.275.257.487.571.62.92.767 1.943.793 9.003-.105 10.87a2.43 2.43 0 0 1-1.131 1.117c-1.353.66-14.232.647-16.027.076Zm5.762-3.682 6.504-3.302-6.504-3.327v6.629Z"
      clip-rule="evenodd" />
  </g>

  <g id="instagram" class="img" fill="none" viewBox="0 0 18 19">
    <path fill="#404649"
      d="M9 2.127h3.687c.867 0 1.301.216 1.626.325.434.217.76.325 1.085.65.325.326.542.651.65 1.085.109.325.217.759.326 1.626v7.374c0 .867-.217 1.301-.326 1.626-.217.434-.325.76-.65 1.085-.326.325-.651.542-1.085.65-.325.109-.759.217-1.626.326H5.313c-.867 0-1.3-.217-1.626-.326-.434-.217-.76-.325-1.085-.65-.325-.326-.542-.651-.65-1.085-.109-.325-.217-.759-.325-1.626V5.813c0-.867.216-1.3.325-1.626.217-.434.325-.76.65-1.085.326-.325.651-.542 1.085-.65.325-.109.759-.217 1.626-.325H9ZM9 .5H5.313c-.976 0-1.626.217-2.168.434a4.735 4.735 0 0 0-1.627 1.084C.976 2.56.76 2.994.434 3.645.217 4.187.108 4.837 0 5.813v7.374c0 .976.217 1.626.434 2.168a4.734 4.734 0 0 0 1.084 1.627c.542.542.976.759 1.627 1.084.542.217 1.192.326 2.168.434h7.374c.976 0 1.626-.217 2.168-.434a4.734 4.734 0 0 0 1.627-1.084c.542-.542.759-.976 1.084-1.627.217-.542.326-1.192.434-2.168V5.813c0-.976-.217-1.626-.434-2.168a4.735 4.735 0 0 0-1.084-1.627c-.542-.542-.976-.759-1.627-1.084C14.313.717 13.663.608 12.687.5H9Z" />
    <path fill="#404649"
      d="M9 4.837A4.628 4.628 0 0 0 4.337 9.5 4.628 4.628 0 0 0 9 14.163 4.628 4.628 0 0 0 13.663 9.5 4.628 4.628 0 0 0 9 4.837Zm0 7.7A3.03 3.03 0 0 1 5.964 9.5 3.03 3.03 0 0 1 9 6.464 3.03 3.03 0 0 1 12.036 9.5c0 1.627-1.41 3.036-3.036 3.036ZM13.771 5.813a1.084 1.084 0 1 0 0-2.168 1.084 1.084 0 0 0 0 2.168Z" />
  </g>

  <g id="facebook" class="img" fill="none" viewBox="0 0 20 21">
    <path stroke="#404649" stroke-linejoin="round" stroke-width="1.5"
      d="M19 6.5a5 5 0 0 0-5-5H6a5 5 0 0 0-5 5v8a5 5 0 0 0 5 5h2.945v-6.363H6.836V9.973h2.11V7.828a3.168 3.168 0 0 1 3.164-3.164h3.199v3.164h-3.2v2.145h3.2l-.528 3.164H12.11V19.5H14a5 5 0 0 0 5-5v-8Z" />
  </g>

  <g id="foot-arrow" class="img" fill="none" viewBox="0 0 23 10">
    <path stroke="#7F8486" stroke-linecap="round" stroke-width="2" d="M1 5h20m0 0-4.333 4M21 5l-4.333-4" />
  </g>

  <g id="faq-cross" class="img" fill="none" viewBox="0 0 12 12">
    <path stroke="#2E3A40" stroke-linecap="round" stroke-linejoin="round" stroke-width="2"
      d="M10.243 1.757 6 6m0 0-4.243 4.243M6 6 1.757 1.757M6 6l4.243 4.243" />
  </g>
</svg>