<svg aria-hidden="true" style="position:absolute;width:0;height:0;overflow:hidden" xmlns="http://www.w3.org/2000/svg">
  <defs>
    <symbol id="logo" viewBox="0 0 95 32">
      <path d="M19.383 16.064c-1.177 1.923-2.939 3.415-5.027 4.254s-4.389.981-6.563.405c-2.174-.576-4.106-1.84-5.508-3.604a10.528 10.528 0 0 1-.427-12.522A10.47 10.47 0 0 1 7.108.623c2.13-.724 4.436-.74 6.575-.046s4 2.061 5.305 3.899l-4.114 3.533c-.557-.968-1.415-1.725-2.442-2.157s-2.167-.514-3.245-.234c-1.078.28-2.035.906-2.725 1.784A5.123 5.123 0 0 0 9.01 15.47c1.067.319 2.21.278 3.251-.117s1.927-1.121 2.518-2.067l4.604 2.778z"/>
      <path d="M35.73 16.247c.001 2.221-.701 4.386-2.005 6.181s-3.141 3.13-5.248 3.811-4.375.673-6.478-.022-3.931-2.042-5.222-3.846l4.077-3.607c.55.971 1.403 1.734 2.427 2.171s2.163.525 3.241.249c1.079-.276 2.037-.899 2.728-1.775a5.114 5.114 0 0 0 .113-6.18 5.063 5.063 0 0 0-5.909-1.744 5.081 5.081 0 0 0-2.504 2.08l-4.645-2.719c1.177-1.967 2.964-3.493 5.088-4.344s4.466-.98 6.67-.367c2.203.613 4.146 1.933 5.531 3.759s2.135 4.057 2.135 6.352h.003zM45.642 21.272v.799c0 1.411-.664 2.116-1.991 2.117h-1.07c-1.327 0-1.991-.706-1.991-2.117v-8.23c0-1.411.664-2.117 1.991-2.117h1.072c1.327 0 1.991.706 1.991 2.117v1.405h-1.657v-1.283c0-.486-.248-.729-.744-.729h-.328c-.439 0-.657.243-.657.729v7.982c0 .486.218.729.657.729h.409c.438 0 .657-.243.658-.729v-.673h1.661zM50.795 17.78c.91.254 1.365.729 1.366 1.427v3.123c0 1.237-.628 1.857-1.885 1.857h-3.338V11.724h2.837c1.475 0 2.213.752 2.214 2.256v2.395c0 .717-.398 1.157-1.194 1.319v.087zm-2.197-.799h.778c.632 0 .948-.301.948-.902v-1.943c0-.601-.248-.902-.743-.902h-.986l.003 3.747zm0 5.693h1.246c.438 0 .657-.18.657-.538v-2.759c0-.59-.329-.885-.986-.885h-.917v4.182zM53.544 24.183V11.72h1.66v12.463h-1.66zM59.406 13.234v10.949h-1.66v-10.95h-1.591v-1.51h4.842v1.51h-1.591zM63.866 24.183c-1.337 0-2.005-.706-2.005-2.117v-8.209c0-1.423.664-2.134 1.991-2.134h1.591c1.327 0 1.991.711 1.991 2.134v8.209c0 1.411-.669 2.116-2.006 2.117h-1.562zm.398-1.509h.847c.438 0 .657-.243.657-.729v-7.982c0-.486-.248-.729-.744-.729h-.778c-.485 0-.727.243-.726.729v7.982c0 .486.248.729.743.729zM70.559 24.183h-1.66V11.72h4.116v1.51H70.56v10.953zM79.499 11.724v12.463h-1.66V13.234h-2.041v8.848c0 1.4-.639 2.1-1.919 2.1h-.519v-1.508h.034c.496 0 .744-.301.743-.902V11.724h5.361zM86.38 24.183h-1.66V19.15h-1.003l-1.089 5.033h-1.573l1.159-5.189c-.657-.289-.986-.977-.986-2.064v-3.072c0-1.423.634-2.134 1.903-2.134h3.251l-.001 12.459zm-1.659-10.949h-1.089c-.496 0-.744.301-.744.902v2.69c0 .603.248.904.744.903h1.089v-4.494zM88.473 24.183v2.481h-1.66v-3.87h.605c.174-.462.326-.906.458-1.332a17.67 17.67 0 0 0 .622-2.785c.079-.526.136-1.123.182-1.788s.079-1.417.103-2.256c.024-.839.041-1.808.052-2.906h4.98v11.067h.778v3.87H92.95v-2.481h-4.479zm3.683-10.949h-1.834c0 .926-.011 1.762-.034 2.507s-.057 1.405-.103 1.979c-.047.571-.104 1.079-.174 1.522s-.147.85-.233 1.237c-.086.387-.19.761-.311 1.127s-.251.77-.39 1.197h3.079v-9.569zM39.894 27.925h.411v2.643h1.098v-.016h.059v-2.627h.413v2.956h-.06v.726h-.412v-.726h-1.508v-2.956zM43.114 30.928a.764.764 0 0 1-.642-.301 1.245 1.245 0 0 1-.231-.783v-.095a1.297 1.297 0 0 1 .23-.794.718.718 0 0 1 .604-.31.659.659 0 0 1 .569.267c.14.211.208.462.195.715v.232h-1.188c-.008.19.034.379.121.547a.4.4 0 0 0 .37.209.774.774 0 0 0 .3-.054.793.793 0 0 0 .235-.157l.134.256a.864.864 0 0 1-.284.19 1.02 1.02 0 0 1-.412.078zm-.04-1.966a.319.319 0 0 0-.285.166 1.003 1.003 0 0 0-.132.437h.776v-.047a.802.802 0 0 0-.088-.402.296.296 0 0 0-.272-.154zM45.903 30.881h-.413v-.939h-.745v.939h-.413v-2.196h.413v.952h.745v-.952h.413v2.196zM48.023 29h-.624v1.881h-.413V29h-.61v-.315h1.643l.004.315zM50.141 29.855c.015.273-.051.545-.19.78a.651.651 0 0 1-.827.229.576.576 0 0 1-.211-.19v1.055H48.5v-3.044h.35l.039.264a.65.65 0 0 1 .219-.226.571.571 0 0 1 .302-.079.605.605 0 0 1 .542.319c.139.26.204.553.19.848v.044zm-.413-.043a1.463 1.463 0 0 0-.108-.61.346.346 0 0 0-.325-.235.37.37 0 0 0-.233.076.546.546 0 0 0-.152.206v1.108a.401.401 0 0 0 .387.258.347.347 0 0 0 .324-.208c.078-.173.115-.363.107-.553v-.042zM52.46 30.615c.049.001.097-.009.14-.03s.083-.051.114-.088a.468.468 0 0 0 .102-.32h.37v.012a.68.68 0 0 1-.209.524.756.756 0 0 1-.595.212.767.767 0 0 1-.552-.307 1.339 1.339 0 0 1-.221-.792v-.077a1.339 1.339 0 0 1 .221-.792c.069-.101.163-.183.273-.237s.231-.08.353-.075a.69.69 0 0 1 .534.223.803.803 0 0 1 .2.578v.01h-.373a.594.594 0 0 0-.095-.357.305.305 0 0 0-.259-.137.345.345 0 0 0-.333.223 1.34 1.34 0 0 0-.102.563v.077c-.008.196.027.39.102.571a.345.345 0 0 0 .33.217zM54.325 30.127l.032.149h.012l.43-1.59h.451l-.783 2.541a1.161 1.161 0 0 1-.21.386.468.468 0 0 1-.379.161.578.578 0 0 1-.11-.011c-.039-.008-.078-.016-.116-.026l.046-.304c.02.004.04.006.06.008h.062a.219.219 0 0 0 .189-.103.819.819 0 0 0 .112-.244l.075-.228-.69-2.188h.449l.368 1.449zM57.197 30.881h-.411v-.797a1.154 1.154 0 0 1-.348.053.814.814 0 0 1-.591-.201c-.138-.134-.207-.345-.207-.633v-.622h.412v.622a.665.665 0 0 0 .095.401.362.362 0 0 0 .295.118 1.112 1.112 0 0 0 .347-.059v-1.078h.415l-.007 2.196zM58.928 30.881a3.167 3.167 0 0 1-.043-.178 1.151 1.151 0 0 1-.019-.155.804.804 0 0 1-.229.269.537.537 0 0 1-.325.107.57.57 0 0 1-.451-.175.685.685 0 0 1-.156-.476.6.6 0 0 1 .218-.49.927.927 0 0 1 .606-.179h.337v-.225a.487.487 0 0 0-.089-.314.302.302 0 0 0-.255-.113.3.3 0 0 0-.237.095.359.359 0 0 0-.088.25h-.394v-.012a.55.55 0 0 1 .198-.451.779.779 0 0 1 .552-.196.738.738 0 0 1 .528.19.726.726 0 0 1 .203.548v1.029a1.822 1.822 0 0 0 .063.476h-.417zm-.532-.274a.49.49 0 0 0 .469-.358v-.391h-.342c-.055-.003-.111.006-.162.028s-.098.053-.136.094a.417.417 0 0 0-.107.291.376.376 0 0 0 .073.244c.024.031.055.057.091.073s.076.024.115.023l-.001-.004zM60.633 30.615c.048.001.097-.009.14-.03s.083-.051.114-.088a.473.473 0 0 0 .102-.32h.371v.012a.68.68 0 0 1-.209.524.756.756 0 0 1-.596.212.771.771 0 0 1-.554-.307 1.339 1.339 0 0 1-.221-.792v-.077a1.339 1.339 0 0 1 .221-.792c.069-.101.163-.183.273-.237s.231-.08.353-.075a.698.698 0 0 1 .692.492.79.79 0 0 1 .042.309v.01h-.373a.6.6 0 0 0-.095-.357.305.305 0 0 0-.259-.137.343.343 0 0 0-.332.223 1.34 1.34 0 0 0-.102.563v.077c-.007.196.027.39.101.571a.347.347 0 0 0 .332.217zM63.442 30.881h-.413v-.939h-.745v.939h-.413v-2.196h.413v.952h.745v-.952h.413v2.196zM63.958 29.761a1.323 1.323 0 0 1 .23-.803.803.803 0 0 1 1.27 0c.162.235.244.517.231.803v.055c.013.286-.068.567-.23.802a.804.804 0 0 1-1.27 0 1.309 1.309 0 0 1-.23-.802v-.055zm.413.055c-.008.198.031.395.113.576a.368.368 0 0 0 .341.224.372.372 0 0 0 .341-.224 1.29 1.29 0 0 0 .113-.571v-.055a1.262 1.262 0 0 0-.114-.571.37.37 0 0 0-.34-.227.372.372 0 0 0-.34.227c-.081.179-.12.375-.113.571v.05zM66.218 28.295h-.426v-.38h.423l.003.38zm.427 2.586h-.411v-2.196h.411v2.196zm.453-2.589h-.423v-.38h.423v.38zM68.237 29.761a1.318 1.318 0 0 1 .231-.803.803.803 0 0 1 .987-.23c.11.054.206.133.281.23.162.235.244.517.232.803v.055a1.3 1.3 0 0 1-.231.802.81.81 0 0 1-.634.311.802.802 0 0 1-.635-.311 1.303 1.303 0 0 1-.231-.802v-.055zm.413.055c-.008.198.031.395.112.576a.369.369 0 0 0 .344.224.358.358 0 0 0 .337-.224c.081-.179.12-.374.113-.571v-.055a1.262 1.262 0 0 0-.114-.571.37.37 0 0 0-.34-.227.365.365 0 0 0-.34.227 1.273 1.273 0 0 0-.112.571v.051zM70.405 29.812a1.636 1.636 0 0 1 .19-.848.63.63 0 0 1 .812-.26.627.627 0 0 1 .209.174v-1.164h.411v1.181a.599.599 0 0 1 .496-.251.609.609 0 0 1 .544.319c.139.26.205.553.19.848v.043a1.4 1.4 0 0 1-.19.78.607.607 0 0 1-.54.293.586.586 0 0 1-.497-.236v1.039h-.411v-1.028a.59.59 0 0 1-.484.225.613.613 0 0 1-.537-.294 1.408 1.408 0 0 1-.19-.779l-.003-.043zm.41.043c-.009.19.027.38.103.554a.337.337 0 0 0 .322.206.377.377 0 0 0 .225-.067.496.496 0 0 0 .153-.19v-1.132a.506.506 0 0 0-.153-.19.36.36 0 0 0-.424-.005.341.341 0 0 0-.123.171 1.544 1.544 0 0 0-.104.613v.041zm2.035-.043a1.46 1.46 0 0 0-.109-.612.351.351 0 0 0-.326-.238.364.364 0 0 0-.234.077.523.523 0 0 0-.151.209v1.104a.405.405 0 0 0 .583.204.342.342 0 0 0 .13-.154c.078-.173.115-.362.107-.552v-.039zM75.272 29h-.62v1.881h-.413V29h-.61v-.315h1.643V29zM76.847 30.881a3.087 3.087 0 0 1-.042-.178 1.01 1.01 0 0 1-.019-.155.798.798 0 0 1-.231.269.53.53 0 0 1-.325.107.57.57 0 0 1-.451-.175.686.686 0 0 1-.157-.476.588.588 0 0 1 .218-.49.93.93 0 0 1 .607-.179h.336v-.225a.494.494 0 0 0-.088-.314.302.302 0 0 0-.256-.113c-.044-.002-.088.005-.129.021s-.078.041-.108.074a.359.359 0 0 0-.088.25h-.392v-.012a.55.55 0 0 1 .199-.45.775.775 0 0 1 .551-.196.747.747 0 0 1 .529.19.724.724 0 0 1 .202.547v1.029a1.822 1.822 0 0 0 .062.476h-.416zm-.531-.274a.459.459 0 0 0 .297-.105.49.49 0 0 0 .17-.253v-.391h-.341a.379.379 0 0 0-.299.121.422.422 0 0 0-.107.291.388.388 0 0 0 .073.244c.024.031.056.056.091.073s.075.025.114.023l.001-.004zM79.364 28.685v2.196h-.413v-1.876h-.561v.634c0 .432-.052.749-.157.951a.564.564 0 0 1-.538.298h-.087v-.329h.063a.245.245 0 0 0 .245-.199c.053-.235.074-.476.063-.716v-.952l1.386-.008zM80.367 29.501h.417a.78.78 0 0 1 .558.19.643.643 0 0 1 .204.496.66.66 0 0 1-.207.504.777.777 0 0 1-.559.19h-.83v-2.196h.413l.003.815zm0 .316v.754h.417a.316.316 0 0 0 .262-.105.406.406 0 0 0 .086-.27.415.415 0 0 0-.086-.267c-.032-.038-.072-.068-.118-.088s-.095-.028-.145-.024h-.417zM83.146 30.381h.011l.563-1.695h.517v2.196h-.412v-1.445h-.012l-.52 1.445h-.279l-.523-1.463h-.011v1.463h-.412v-2.196h.519l.559 1.695zM84.793 29.761a1.318 1.318 0 0 1 .231-.803.803.803 0 0 1 1.269 0c.162.235.244.517.231.803v.055c.013.286-.068.567-.231.802a.804.804 0 0 1-1.27 0 1.316 1.316 0 0 1-.231-.802v-.055zm.414.055c-.008.198.03.395.112.576a.368.368 0 0 0 .343.224.358.358 0 0 0 .337-.224 1.29 1.29 0 0 0 .113-.571v-.055a1.262 1.262 0 0 0-.114-.571c-.028-.067-.076-.124-.136-.165s-.131-.062-.204-.062a.365.365 0 0 0-.34.227 1.273 1.273 0 0 0-.112.571v.051zM88.582 28.685v2.196h-.416v-1.876h-.561v.634c0 .432-.053.749-.158.951a.558.558 0 0 1-.538.298h-.087v-.329h.062a.245.245 0 0 0 .245-.199c.053-.235.074-.476.064-.716v-.952l1.389-.008zM89.066 29.761a1.318 1.318 0 0 1 .231-.803.803.803 0 0 1 .987-.23c.11.054.206.133.281.23.162.235.244.517.232.803v.055a1.3 1.3 0 0 1-.231.802.804.804 0 0 1-1.27 0 1.303 1.303 0 0 1-.231-.802v-.055zm.413.055c-.008.198.031.395.112.576a.368.368 0 0 0 .343.224.358.358 0 0 0 .338-.224 1.29 1.29 0 0 0 .113-.571v-.055a1.262 1.262 0 0 0-.114-.571.37.37 0 0 0-.34-.227.372.372 0 0 0-.34.227 1.273 1.273 0 0 0-.112.571v.051zM92.552 29.005h-.828v1.876h-.414v-2.196h1.242v.32zM93.391 28.108h-.412v-.394h.412v.394zm0 2.777h-.412v-2.2h.412v2.2zM94.03 28.295h-.424v-.38h.424v.38zm.428 2.59h-.414v-2.2h.411l.004 2.2zm.454-2.59h-.423v-.38h.423v.38z"/>
    </symbol>
  </defs>
</svg>
