<svg aria-hidden="true" style="position:absolute;width:0;height:0;overflow:hidden" xmlns="http://www.w3.org/2000/svg">
  <defs>
    <symbol id="main-faq" viewBox="0 0 30 32">
      <path fill="none" stroke-linejoin="round" stroke-linecap="round" stroke-miterlimit="4" stroke-width="2.1333"
        d="M25.154 1.105h-20.442c-1.993 0.002-3.607 1.618-3.607 3.611 0 0.001 0 0.002 0 0.003v-0 13.182c0 0.001 0 0.002 0 0.003 0 1.993 1.615 3.609 3.607 3.611h1.579v8.505l8.642-8.505h10.221c1.993-0.002 3.607-1.618 3.607-3.611 0-0.001 0-0.002 0-0.003v0-13.182c0-0.001 0-0.002 0-0.003 0-1.993-1.615-3.609-3.607-3.611h-0zM8.019 7.908h13.828M8.019 14.711h8.643">
      </path>
    </symbol>

    <symbol id="main-tel" viewBox="0 0 32 32">
      <path fill="none" stroke-linejoin="round" stroke-linecap="round" stroke-miterlimit="4" stroke-width="2.4615"
        d="M30.505 23.215v4.368c0.007 1.669-1.494 3.065-3.18 2.911-14.548 0.012-25.83-11.375-25.818-25.825-0.153-1.676 1.234-3.172 2.902-3.174h4.377c0.009-0 0.019-0 0.029-0 0.728 0 1.394 0.267 1.906 0.707l-0.004-0.003c1.526 1.311 2.507 5.756 2.129 7.524-0.295 1.378-1.686 2.345-2.631 3.289 2.115 3.666 5.081 6.626 8.639 8.675l0.113 0.060c0.945-0.944 1.913-2.332 3.296-2.626 1.772-0.378 6.247 0.606 7.552 2.142 0.463 0.545 0.708 1.241 0.69 1.954zM20.030 7.136c1.188 0.231 2.368 0.756 3.223 1.612 0.855 0.855 1.38 2.034 1.612 3.222M20.836 1.494c2.468 0.274 4.689 1.468 6.447 3.225 1.758 1.754 2.945 3.978 3.223 6.447">
      </path>
    </symbol>

    <!-- Тут знаходяться background css svg-sprite -->
    <style>
      .img {
        display: none;
      }

      .img:target {
        display: inline;
      }
    </style>
  </defs>
  <g id="link-arrow" class="img" viewBox="0 0 14 10" fill="none">
    <path d="M1 5h11m0 0L7.667 9M12 5 7.667 1" stroke="#2E3A40" stroke-width="2" stroke-linecap="round" />
  </g>


  <g id="about-arrow" class="img" viewBox="0 0 22 32" fill="none">
    <path
      d="M21 31C13.377 23.905 7.18 13.927 5.094 3.67m5.854 3.353C7.575 5.631 5.05 3.451 4.55 1 5.05 3.451 3.57 6.416 1 8.972"
      stroke="#fff" stroke-width="2" stroke-linecap="round" />
  </g>

  <g id="about-eye" class="img" viewBox="0 0 102 102" fill="none">
    <circle cx="51" cy="50.999" r="50" stroke="#ffffff" stroke-opacity="0.4" stroke-width="2" />
    <path
      d="M70 50.9555C70 50.9555 64.3 63.999 51 63.999C37.7 63.999 32 50.9555 32 50.9555C32 50.9555 37.7 38.999 51 38.999C64.3 38.999 70 50.9555 70 50.9555Z"
      fill="white" stroke="#20B6C9" stroke-width="2" stroke-linecap="round" />
    <ellipse cx="51" cy="51.4989" rx="5.97143" ry="5.97826" fill="white" stroke="#20B6C9" stroke-width="2"
      stroke-linecap="round" />
  </g>

  <g id="about-slider-arrow" class="img" viewBox="0 0 42 42" fill="none">
    <circle r="20" transform="matrix(-1 0 0 1 21 21)" stroke="#fff" stroke-opacity=".4" stroke-width="2" />
    <path d="M29 21H14m0 0 5.91 5M14 21l5.91-5" stroke="#fff" stroke-width="2" stroke-linecap="round" />
  </g>

  <g id="about-eye-mob" class="img" viewBox="0 0 102 102" fill="none">
    <circle cx="51" cy="51" r="50" stroke="#fff" stroke-opacity=".4" stroke-width="2" />
    <path d="M67 31.044S62.2 42 51 42 35 31.044 35 31.044 39.8 21 51 21s16 10.044 16 10.044Z" fill="#fff"
      stroke="#20B6C9" stroke-width="2" stroke-linecap="round" />
    <ellipse cx="51" cy="31.5" rx="5.029" ry="5.022" fill="#fff" stroke="#20B6C9" stroke-width="2"
      stroke-linecap="round" />
  </g>

  <g id="bgc-discount" class="img" viewBox="0 0 277 58" fill="none">
    <circle cx="8" cy="27" r="8" fill="#20B6C9" />
    <path
      d="M57.18 28.64h-5.297v-3.726h4.219c1.234 0 2.234-.187 3-.562.765-.391 1.328-.938 1.687-1.641.36-.703.54-1.531.54-2.484 0-.782-.204-1.5-.61-2.157-.39-.656-1-1.18-1.828-1.57-.828-.406-1.883-.61-3.164-.61-.97 0-1.852.172-2.649.516-.797.344-1.43.828-1.898 1.453-.47.61-.703 1.352-.703 2.227h-7.008c0-1.5.32-2.844.96-4.031a9.24 9.24 0 0 1 2.673-3.047c1.14-.844 2.453-1.485 3.937-1.922a16.496 16.496 0 0 1 4.688-.656c1.921 0 3.656.21 5.203.633 1.547.406 2.875 1.015 3.984 1.828a8.206 8.206 0 0 1 2.555 3.023c.594 1.203.89 2.602.89 4.195a7.114 7.114 0 0 1-.796 3.305c-.532 1.031-1.29 1.938-2.274 2.719-.984.781-2.164 1.398-3.539 1.851-1.375.438-2.898.657-4.57.657Zm-5.297-2.038h5.297c1.86 0 3.508.195 4.945.585 1.453.391 2.68.961 3.68 1.711a7.198 7.198 0 0 1 2.297 2.79c.53 1.093.796 2.351.796 3.773 0 1.594-.328 3.008-.984 4.242-.64 1.234-1.555 2.281-2.742 3.14-1.172.86-2.563 1.509-4.172 1.946-1.594.438-3.352.656-5.273.656-1.532 0-3.055-.187-4.57-.562a13.98 13.98 0 0 1-4.126-1.781 9.097 9.097 0 0 1-2.953-3.07c-.734-1.25-1.101-2.75-1.101-4.5h7.054c0 .827.242 1.585.727 2.273.484.672 1.156 1.21 2.015 1.617.86.39 1.844.586 2.954.586 1.296 0 2.398-.203 3.304-.61.922-.406 1.617-.96 2.086-1.664a4.147 4.147 0 0 0 .727-2.367c0-.922-.125-1.703-.375-2.344a3.816 3.816 0 0 0-1.102-1.57c-.484-.422-1.086-.726-1.804-.914-.704-.187-1.524-.281-2.461-.281h-4.22v-3.656Zm44.976-1.829v5.485H79.047v-5.485h17.812ZM81.133 10.875V45h-7.031V10.875h7.03Zm20.742 0V45h-7.008V10.875h7.008Zm12.891 23.063 13.711-23.063h7.031V45h-7.031V21.937L114.766 45h-7.032V10.875h7.032v23.063Zm38.109-3-13.008-20.063h8.742l7.641 13.828h5.93l-.914 6.235h-8.391Zm3.328-1.079L148.117 45h-8.765l11.179-19.219 5.672 4.078Zm10.57-18.984V45h-6.984V10.875h6.984Zm19.641 0-12.82 20.063h-8.344l-.914-6.235h5.883l7.453-13.828h8.742ZM178.164 45l-7.898-15.14 5.695-4.079L186.93 45h-8.766Zm18.914-34.125V45h-7.031V10.875h7.031Zm20.11 0-13.079 20.04h-8.601l-.891-6.259h5.742l8.297-13.781h8.532ZM209.945 45l-9.562-15.258 4.875-5.015L218.289 45h-8.344Zm17.883-11.063 13.711-23.062h7.031V45h-7.031V21.937L227.828 45h-7.031V10.875h7.031v23.063Z"
      fill="#2E3A40" />
  </g>

  <g id="discount-slider-arrow" class="img" viewBox="0 0 18 12" fill="none">
    <path d="M1 6h15m0 0-5.91 5M16 6l-5.91-5" stroke="#20B6C9" stroke-width="2" stroke-linecap="round" />
  </g>

  <g id="reviews-pen" class="img" fill="none" viewBox="0 0 19 19">
    <path
      d="m11 4 4 4M1 18h3.586a1 1 0 0 0 .707-.293l12-12a1 1 0 0 0 0-1.414l-2.586-2.586a1 1 0 0 0-1.414 0l-12 12a1 1 0 0 0-.293.707V18Z"
      stroke="#2E3A40" stroke-width="2" stroke-linejoin="round" />
    <path d="M10 18h7.5" stroke="#2E3A40" stroke-width="2" stroke-linecap="round" stroke-linejoin="round" />
  </g>

  <g id="reviews-smile" class="img" fill="none" viewBox="0 0 40 40">
    <circle cx="20" cy="20" r="19" stroke="#fff" stroke-linecap="round" stroke-linejoin="round" stroke-width="2" />
    <circle cx="14.723" cy="14.723" r="3.167" fill="#fff" />
    <circle cx="25.279" cy="14.723" r="3.167" fill="#fff" />
    <path stroke="#fff" stroke-linecap="round" stroke-linejoin="round" stroke-width="2"
      d="M26.333 24.221a6.333 6.333 0 1 1-12.667 0h12.667Z" />
  </g>

  <g id="reviews-star" class="img" viewBox="0 0 24 22">
    <path fill="#ffd362"
      d="m12 0 2.821 8.117 8.592.175-6.848 5.191 2.488 8.225L12 16.8l-7.053 4.908 2.488-8.225L.587 8.292l8.592-.175L12 0Z" />
  </g>

  <g id="reviews-star-reverse" class="img" viewBox="0 0 24 22">
    <path fill="#e0e7ea"
      d="m12 0 2.821 8.117 8.592.175-6.848 5.191 2.488 8.225L12 16.8l-7.053 4.908 2.488-8.225L.587 8.292l8.592-.175L12 0Z" />
  </g>

</svg>